# Blender 3.6.0
# www.blender.org
o Sphere
v 0.000000 0.900969 -0.433884
v 0.000000 0.222521 -0.974928
v 0.000000 -0.222521 -0.974928
v 0.000000 -0.900969 -0.433884
v 0.216942 0.900969 -0.375754
v 0.390916 0.623490 -0.677086
v 0.487464 0.222521 -0.844312
v 0.487464 -0.222521 -0.844312
v 0.390916 -0.623490 -0.677086
v 0.216942 -0.900969 -0.375754
v 0.000000 1.000000 0.000000
v 0.375754 0.900969 -0.216942
v 0.677086 0.623490 -0.390916
v 0.844312 0.222521 -0.487464
v 0.844312 -0.222521 -0.487464
v 0.677086 -0.623490 -0.390916
v 0.375754 -0.900969 -0.216942
v 0.433884 0.900969 0.000000
v 0.781831 0.623490 0.000000
v 0.974928 0.222521 0.000000
v 0.974928 -0.222521 0.000000
v 0.781831 -0.623490 0.000000
v 0.433884 -0.900969 0.000000
v 0.375754 0.900969 0.216942
v 0.677086 0.623490 0.390916
v 0.844312 0.222521 0.487464
v 0.844312 -0.222521 0.487464
v 0.677086 -0.623490 0.390916
v 0.375754 -0.900969 0.216942
v 0.216942 0.900969 0.375754
v 0.390916 0.623490 0.677086
v 0.487464 0.222521 0.844312
v 0.487464 -0.222521 0.844312
v 0.390916 -0.623490 0.677086
v 0.216942 -0.900969 0.375754
v -0.000000 0.900969 0.433884
v -0.000000 0.623490 0.781831
v -0.000000 0.222521 0.974928
v -0.000000 -0.222521 0.974928
v -0.000000 -0.623490 0.781831
v -0.000000 -0.900969 0.433884
v -0.216942 0.900969 0.375754
v -0.390916 0.623490 0.677086
v -0.487464 0.222521 0.844312
v -0.487464 -0.222521 0.844312
v -0.390916 -0.623490 0.677086
v -0.216942 -0.900969 0.375754
v 0.000000 -1.000000 0.000000
v -0.375754 0.900969 0.216942
v -0.677086 0.623490 0.390916
v -0.844312 0.222521 0.487464
v -0.844312 -0.222521 0.487464
v -0.677086 -0.623490 0.390916
v -0.375754 -0.900969 0.216942
v -0.433884 0.900969 -0.000000
v -0.781831 0.623490 -0.000000
v -0.974928 0.222521 -0.000000
v -0.974928 -0.222521 -0.000000
v -0.781831 -0.623490 -0.000000
v -0.433884 -0.900969 -0.000000
v -0.375754 0.900969 -0.216942
v -0.677086 0.623490 -0.390916
v -0.844312 0.222521 -0.487464
v -0.844312 -0.222521 -0.487464
v -0.677086 -0.623490 -0.390916
v -0.375754 -0.900969 -0.216942
v -0.216942 0.900969 -0.375754
v -0.390916 0.623490 -0.677086
v -0.487464 0.222521 -0.844312
v -0.487464 -0.222521 -0.844312
v -0.390916 -0.623490 -0.677086
v -0.216942 -0.900969 -0.375754
v 0.000000 0.623490 -0.781831
v 0.000000 -0.623490 -0.781831
vn -0.0000 -1.0000 -0.0000
vn -0.0000 -0.8864 -0.4630
vn 0.2315 -0.8864 -0.4009
vn -0.0000 -0.6061 -0.7954
vn 0.4883 -0.2150 -0.8458
vn 0.3977 -0.6061 -0.6888
vn -0.0000 0.6061 -0.7954
vn 0.4883 0.2150 -0.8458
vn -0.0000 0.2150 -0.9766
vn -0.0000 0.8864 -0.4630
vn -0.0000 1.0000 -0.0000
vn 0.2315 0.8864 -0.4009
vn -0.0000 -0.2150 -0.9766
vn 0.3977 0.6061 -0.6888
vn 0.6888 0.6061 -0.3977
vn 0.4009 -0.8864 -0.2315
vn 0.6888 -0.6061 -0.3977
vn 0.8458 0.2150 -0.4883
vn 0.4009 0.8864 -0.2315
vn 0.8458 -0.2150 -0.4883
vn 0.4630 -0.8864 -0.0000
vn 0.7954 -0.6061 -0.0000
vn 0.9766 0.2150 -0.0000
vn 0.4630 0.8864 -0.0000
vn 0.9766 -0.2150 -0.0000
vn 0.7954 0.6061 -0.0000
vn 0.6888 -0.6061 0.3977
vn 0.6888 0.6061 0.3977
vn 0.8458 0.2150 0.4883
vn 0.4009 0.8864 0.2315
vn 0.4009 -0.8864 0.2315
vn 0.8458 -0.2150 0.4883
vn 0.2315 0.8864 0.4009
vn 0.3977 -0.6061 0.6888
vn 0.2315 -0.8864 0.4009
vn 0.4883 -0.2150 0.8458
vn 0.3977 0.6061 0.6888
vn 0.4883 0.2150 0.8458
vn -0.0000 -0.8864 0.4630
vn -0.0000 -0.2150 0.9766
vn -0.0000 0.6061 0.7954
vn -0.0000 -0.6061 0.7954
vn -0.0000 0.2150 0.9766
vn -0.0000 0.8864 0.4630
vn -0.4883 -0.2150 0.8458
vn -0.3977 0.6061 0.6888
vn -0.2315 -0.8864 0.4009
vn -0.3977 -0.6061 0.6888
vn -0.4883 0.2150 0.8458
vn -0.2315 0.8864 0.4009
vn -0.4009 -0.8864 0.2315
vn -0.6888 -0.6061 0.3977
vn -0.8458 0.2150 0.4883
vn -0.4009 0.8864 0.2315
vn -0.8458 -0.2150 0.4883
vn -0.6888 0.6061 0.3977
vn -0.4630 -0.8864 -0.0000
vn -0.7954 -0.6061 -0.0000
vn -0.9766 0.2150 -0.0000
vn -0.4630 0.8864 -0.0000
vn -0.9766 -0.2150 -0.0000
vn -0.7954 0.6061 -0.0000
vn -0.8458 0.2150 -0.4883
vn -0.4009 0.8864 -0.2315
vn -0.4009 -0.8864 -0.2315
vn -0.8458 -0.2150 -0.4883
vn -0.6888 0.6061 -0.3977
vn -0.6888 -0.6061 -0.3977
vn -0.2315 -0.8864 -0.4009
vn -0.4883 -0.2150 -0.8458
vn -0.3977 0.6061 -0.6888
vn -0.3977 -0.6061 -0.6888
vn -0.4883 0.2150 -0.8458
vn -0.2315 0.8864 -0.4009
vt 0.708333 0.000000
vt 0.750000 0.142857
vt 0.666667 0.142857
vt 0.750000 0.285714
vt 0.666667 0.428571
vt 0.666667 0.285714
vt 0.750000 0.714286
vt 0.666667 0.571429
vt 0.750000 0.571429
vt 0.750000 0.857143
vt 0.708333 1.000000
vt 0.666667 0.857143
vt 0.750000 0.428571
vt 0.666667 0.714286
vt 0.583333 0.714286
vt 0.625000 0.000000
vt 0.583333 0.142857
vt 0.583333 0.285714
vt 0.583333 0.571429
vt 0.625000 1.000000
vt 0.583333 0.857143
vt 0.583333 0.428571
vt 0.541667 0.000000
vt 0.500000 0.142857
vt 0.500000 0.285714
vt 0.500000 0.571429
vt 0.541667 1.000000
vt 0.500000 0.857143
vt 0.500000 0.428571
vt 0.500000 0.714286
vt 0.416667 0.285714
vt 0.416667 0.714286
vt 0.416667 0.571429
vt 0.458333 1.000000
vt 0.416667 0.857143
vt 0.416667 0.142857
vt 0.416667 0.428571
vt 0.458333 0.000000
vt 0.375000 1.000000
vt 0.333333 0.857143
vt 0.333333 0.285714
vt 0.333333 0.142857
vt 0.333333 0.428571
vt 0.333333 0.714286
vt 0.375000 0.000000
vt 0.333333 0.571429
vt 0.250000 0.142857
vt 0.250000 0.428571
vt 0.250000 0.714286
vt 0.291667 0.000000
vt 0.250000 0.285714
vt 0.250000 0.571429
vt 0.291667 1.000000
vt 0.250000 0.857143
vt 0.166667 0.428571
vt 0.166667 0.714286
vt 0.208333 0.000000
vt 0.166667 0.142857
vt 0.166667 0.285714
vt 0.166667 0.571429
vt 0.208333 1.000000
vt 0.166667 0.857143
vt 0.125000 0.000000
vt 0.083333 0.142857
vt 0.083333 0.285714
vt 0.083333 0.571429
vt 0.125000 1.000000
vt 0.083333 0.857143
vt 0.083333 0.428571
vt 0.083333 0.714286
vt 0.041667 0.000000
vt 0.000000 0.142857
vt 0.000000 0.285714
vt 0.000000 0.571429
vt 0.041667 1.000000
vt 0.000000 0.857143
vt 0.000000 0.428571
vt 0.000000 0.714286
vt 1.000000 0.714286
vt 0.916667 0.571429
vt 1.000000 0.571429
vt 1.000000 0.857143
vt 0.958333 1.000000
vt 0.916667 0.857143
vt 1.000000 0.285714
vt 0.916667 0.142857
vt 1.000000 0.142857
vt 0.916667 0.428571
vt 1.000000 0.428571
vt 0.916667 0.714286
vt 0.958333 0.000000
vt 0.916667 0.285714
vt 0.833333 0.142857
vt 0.833333 0.428571
vt 0.833333 0.714286
vt 0.875000 0.000000
vt 0.833333 0.285714
vt 0.833333 0.571429
vt 0.875000 1.000000
vt 0.833333 0.857143
vt 0.791667 0.000000
vt 0.791667 1.000000
s 1
f 48/1/1 4/2/2 10/3/3
f 74/4/4 8/5/5 9/6/6
f 73/7/7 7/8/8 2/9/9
f 1/10/10 11/11/11 5/12/12
f 74/4/4 10/3/3 4/2/2
f 2/9/9 8/5/5 3/13/13
f 73/7/7 5/12/12 6/14/14
f 5/12/12 13/15/15 6/14/14
f 48/16/1 10/3/3 17/17/16
f 8/5/5 16/18/17 9/6/6
f 6/14/14 14/19/18 7/8/8
f 5/12/12 11/20/11 12/21/19
f 9/6/6 17/17/16 10/3/3
f 7/8/8 15/22/20 8/5/5
f 48/23/1 17/17/16 23/24/21
f 15/22/20 22/25/22 16/18/17
f 13/15/15 20/26/23 14/19/18
f 12/21/19 11/27/11 18/28/24
f 16/18/17 23/24/21 17/17/16
f 14/19/18 21/29/25 15/22/20
f 12/21/19 19/30/26 13/15/15
f 21/29/25 28/31/27 22/25/22
f 20/26/23 25/32/28 26/33/29
f 18/28/24 11/34/11 24/35/30
f 23/24/21 28/31/27 29/36/31
f 20/26/23 27/37/32 21/29/25
f 18/28/24 25/32/28 19/30/26
f 48/38/1 23/24/21 29/36/31
f 24/35/30 11/39/11 30/40/33
f 29/36/31 34/41/34 35/42/35
f 26/33/29 33/43/36 27/37/32
f 24/35/30 31/44/37 25/32/28
f 48/45/1 29/36/31 35/42/35
f 27/37/32 34/41/34 28/31/27
f 25/32/28 32/46/38 26/33/29
f 34/41/34 41/47/39 35/42/35
f 32/46/38 39/48/40 33/43/36
f 30/40/33 37/49/41 31/44/37
f 48/50/1 35/42/35 41/47/39
f 33/43/36 40/51/42 34/41/34
f 31/44/37 38/52/43 32/46/38
f 30/40/33 11/53/11 36/54/44
f 38/52/43 45/55/45 39/48/40
f 36/54/44 43/56/46 37/49/41
f 48/57/1 41/47/39 47/58/47
f 40/51/42 45/55/45 46/59/48
f 38/52/43 43/56/46 44/60/49
f 36/54/44 11/61/11 42/62/50
f 40/51/42 47/58/47 41/47/39
f 48/63/1 47/58/47 54/64/51
f 45/55/45 53/65/52 46/59/48
f 43/56/46 51/66/53 44/60/49
f 42/62/50 11/67/11 49/68/54
f 47/58/47 53/65/52 54/64/51
f 44/60/49 52/69/55 45/55/45
f 42/62/50 50/70/56 43/56/46
f 48/71/1 54/64/51 60/72/57
f 52/69/55 59/73/58 53/65/52
f 50/70/56 57/74/59 51/66/53
f 49/68/54 11/75/11 55/76/60
f 53/65/52 60/72/57 54/64/51
f 51/66/53 58/77/61 52/69/55
f 50/70/56 55/76/60 56/78/62
f 56/79/62 63/80/63 57/81/59
f 55/82/60 11/83/11 61/84/64
f 59/85/58 66/86/65 60/87/57
f 57/81/59 64/88/66 58/89/61
f 55/82/60 62/90/67 56/79/62
f 48/91/1 60/87/57 66/86/65
f 58/89/61 65/92/68 59/85/58
f 65/92/68 72/93/69 66/86/65
f 63/80/63 70/94/70 64/88/66
f 61/84/64 68/95/71 62/90/67
f 48/96/1 66/86/65 72/93/69
f 64/88/66 71/97/72 65/92/68
f 62/90/67 69/98/73 63/80/63
f 61/84/64 11/99/11 67/100/74
f 71/97/72 4/2/2 72/93/69
f 69/98/73 3/13/13 70/94/70
f 68/95/71 1/10/10 73/7/7
f 48/101/1 72/93/69 4/2/2
f 70/94/70 74/4/4 71/97/72
f 69/98/73 73/7/7 2/9/9
f 67/100/74 11/102/11 1/10/10
f 74/4/4 3/13/13 8/5/5
f 73/7/7 6/14/14 7/8/8
f 74/4/4 9/6/6 10/3/3
f 2/9/9 7/8/8 8/5/5
f 73/7/7 1/10/10 5/12/12
f 5/12/12 12/21/19 13/15/15
f 8/5/5 15/22/20 16/18/17
f 6/14/14 13/15/15 14/19/18
f 9/6/6 16/18/17 17/17/16
f 7/8/8 14/19/18 15/22/20
f 15/22/20 21/29/25 22/25/22
f 13/15/15 19/30/26 20/26/23
f 16/18/17 22/25/22 23/24/21
f 14/19/18 20/26/23 21/29/25
f 12/21/19 18/28/24 19/30/26
f 21/29/25 27/37/32 28/31/27
f 20/26/23 19/30/26 25/32/28
f 23/24/21 22/25/22 28/31/27
f 20/26/23 26/33/29 27/37/32
f 18/28/24 24/35/30 25/32/28
f 29/36/31 28/31/27 34/41/34
f 26/33/29 32/46/38 33/43/36
f 24/35/30 30/40/33 31/44/37
f 27/37/32 33/43/36 34/41/34
f 25/32/28 31/44/37 32/46/38
f 34/41/34 40/51/42 41/47/39
f 32/46/38 38/52/43 39/48/40
f 30/40/33 36/54/44 37/49/41
f 33/43/36 39/48/40 40/51/42
f 31/44/37 37/49/41 38/52/43
f 38/52/43 44/60/49 45/55/45
f 36/54/44 42/62/50 43/56/46
f 40/51/42 39/48/40 45/55/45
f 38/52/43 37/49/41 43/56/46
f 40/51/42 46/59/48 47/58/47
f 45/55/45 52/69/55 53/65/52
f 43/56/46 50/70/56 51/66/53
f 47/58/47 46/59/48 53/65/52
f 44/60/49 51/66/53 52/69/55
f 42/62/50 49/68/54 50/70/56
f 52/69/55 58/77/61 59/73/58
f 50/70/56 56/78/62 57/74/59
f 53/65/52 59/73/58 60/72/57
f 51/66/53 57/74/59 58/77/61
f 50/70/56 49/68/54 55/76/60
f 56/79/62 62/90/67 63/80/63
f 59/85/58 65/92/68 66/86/65
f 57/81/59 63/80/63 64/88/66
f 55/82/60 61/84/64 62/90/67
f 58/89/61 64/88/66 65/92/68
f 65/92/68 71/97/72 72/93/69
f 63/80/63 69/98/73 70/94/70
f 61/84/64 67/100/74 68/95/71
f 64/88/66 70/94/70 71/97/72
f 62/90/67 68/95/71 69/98/73
f 71/97/72 74/4/4 4/2/2
f 69/98/73 2/9/9 3/13/13
f 68/95/71 67/100/74 1/10/10
f 70/94/70 3/13/13 74/4/4
f 69/98/73 68/95/71 73/7/7
